# xmcd
#
# Track frame offsets:
# 150
# 22823
# 45974
# 61631
# 72323
# 86759
# 100775
# 115519
# 130787
# 148841
# 166097
# 183955
# 200497
# 214157
#
# Disc length: 2999 seconds
#
#
# Revision: 0
# Processed by: cddbd v1.5.1PL2 Copyright (c) Steve Scherf et al.
# Submitted via: FreeRIP 2.944 
#
DISCID=b30bb50e
DTITLE=Mojo Webb - The Burden
DYEAR=2005
DGENRE=Blues
TTITLE0=A Man Like Me
TTITLE1=The Burden
TTITLE2=The Luckiest Man Alive
TTITLE3=I Got A Feeling
TTITLE4=You Don't Know
TTITLE5=Right Away
TTITLE6=Roseberry Jam
TTITLE7=Telephone Blues
TTITLE8=Take Me Back Now
TTITLE9=Weep and Moan
TTITLE10=Two
TTITLE11=Got You On My Mind
TTITLE12=It's Been A While
TTITLE13=The Butterfly
EXTD=
EXTT0=
EXTT1=
EXTT2=
EXTT3=
EXTT4=
EXTT5=
EXTT6=
EXTT7=
EXTT8=
EXTT9=
EXTT10=
EXTT11=
EXTT12=
EXTT13=
PLAYORDER=
